<svg width="112" height="32" viewBox="0 0 112 32" fill="none" xmlns="http://www.w3.org/2000/svg">
<path d="M49.2285 21.4062C49.2285 21.0742 49.1764 20.7812 49.0723 20.5273C48.9746 20.2669 48.7988 20.0326 48.5449 19.8242C48.2975 19.6159 47.9525 19.4173 47.5098 19.2285C47.0736 19.0397 46.5202 18.8477 45.8496 18.6523C45.1465 18.444 44.5117 18.2129 43.9453 17.959C43.3789 17.6986 42.8939 17.4023 42.4902 17.0703C42.0866 16.7383 41.7773 16.3574 41.5625 15.9277C41.3477 15.498 41.2402 15.0065 41.2402 14.4531C41.2402 13.8997 41.3542 13.3887 41.582 12.9199C41.8099 12.4512 42.1354 12.0443 42.5586 11.6992C42.9883 11.3477 43.4993 11.0742 44.0918 10.8789C44.6842 10.6836 45.3451 10.5859 46.0742 10.5859C47.1419 10.5859 48.0469 10.791 48.7891 11.2012C49.5378 11.6048 50.1074 12.1354 50.498 12.793C50.8887 13.444 51.084 14.1406 51.084 14.8828H49.209C49.209 14.349 49.0951 13.877 48.8672 13.4668C48.6393 13.0501 48.2943 12.7246 47.832 12.4902C47.3698 12.2493 46.7839 12.1289 46.0742 12.1289C45.4036 12.1289 44.8503 12.2298 44.4141 12.4316C43.9779 12.6335 43.6523 12.9069 43.4375 13.252C43.2292 13.597 43.125 13.9909 43.125 14.4336C43.125 14.7331 43.1868 15.0065 43.3105 15.2539C43.4408 15.4948 43.6393 15.7194 43.9062 15.9277C44.1797 16.1361 44.5247 16.3281 44.9414 16.5039C45.3646 16.6797 45.8691 16.849 46.4551 17.0117C47.2624 17.2396 47.959 17.4935 48.5449 17.7734C49.1309 18.0534 49.6126 18.3691 49.9902 18.7207C50.3743 19.0658 50.6576 19.4596 50.8398 19.9023C51.0286 20.3385 51.123 20.8333 51.123 21.3867C51.123 21.9661 51.0059 22.4902 50.7715 22.959C50.5371 23.4277 50.2018 23.8281 49.7656 24.1602C49.3294 24.4922 48.8053 24.7493 48.1934 24.9316C47.5879 25.1074 46.9108 25.1953 46.1621 25.1953C45.5046 25.1953 44.8568 25.1042 44.2188 24.9219C43.5872 24.7396 43.0111 24.4661 42.4902 24.1016C41.9759 23.737 41.5625 23.2878 41.25 22.7539C40.944 22.2135 40.791 21.5885 40.791 20.8789H42.666C42.666 21.3672 42.7604 21.7871 42.9492 22.1387C43.138 22.4837 43.3952 22.7702 43.7207 22.998C44.0527 23.2259 44.4271 23.3952 44.8438 23.5059C45.2669 23.61 45.7064 23.6621 46.1621 23.6621C46.8197 23.6621 47.3763 23.571 47.832 23.3887C48.2878 23.2064 48.6328 22.946 48.8672 22.6074C49.1081 22.2689 49.2285 21.8685 49.2285 21.4062ZM57.6758 14.4336V15.8203H51.9629V14.4336H57.6758ZM53.8965 11.8652H55.7031V22.3828C55.7031 22.7409 55.7585 23.0111 55.8691 23.1934C55.9798 23.3757 56.123 23.4961 56.2988 23.5547C56.4746 23.6133 56.6634 23.6426 56.8652 23.6426C57.015 23.6426 57.1712 23.6296 57.334 23.6035C57.5033 23.571 57.6302 23.5449 57.7148 23.5254L57.7246 25C57.5814 25.0456 57.3926 25.0879 57.1582 25.127C56.9303 25.1725 56.6536 25.1953 56.3281 25.1953C55.8854 25.1953 55.4785 25.1074 55.1074 24.9316C54.7363 24.7559 54.4401 24.4629 54.2188 24.0527C54.0039 23.6361 53.8965 23.0762 53.8965 22.373V11.8652ZM66.0254 23.1934V17.7539C66.0254 17.3372 65.9408 16.9759 65.7715 16.6699C65.6087 16.3574 65.3613 16.1165 65.0293 15.9473C64.6973 15.778 64.2871 15.6934 63.7988 15.6934C63.3431 15.6934 62.9427 15.7715 62.5977 15.9277C62.2591 16.084 61.9922 16.2891 61.7969 16.543C61.6081 16.7969 61.5137 17.0703 61.5137 17.3633H59.707C59.707 16.9857 59.8047 16.6113 60 16.2402C60.1953 15.8691 60.4753 15.5339 60.8398 15.2344C61.2109 14.9284 61.6536 14.6875 62.168 14.5117C62.6888 14.3294 63.2682 14.2383 63.9062 14.2383C64.6745 14.2383 65.3516 14.3685 65.9375 14.6289C66.5299 14.8893 66.9922 15.2832 67.3242 15.8105C67.6628 16.3314 67.832 16.9857 67.832 17.7734V22.6953C67.832 23.0469 67.8613 23.4212 67.9199 23.8184C67.985 24.2155 68.0794 24.5573 68.2031 24.8438V25H66.3184C66.2272 24.7917 66.1556 24.515 66.1035 24.1699C66.0514 23.8184 66.0254 23.4928 66.0254 23.1934ZM66.3379 18.5938L66.3574 19.8633H64.5312C64.0169 19.8633 63.5579 19.9056 63.1543 19.9902C62.7507 20.0684 62.4121 20.1888 62.1387 20.3516C61.8652 20.5143 61.6569 20.7194 61.5137 20.9668C61.3704 21.2077 61.2988 21.4909 61.2988 21.8164C61.2988 22.1484 61.3737 22.4512 61.5234 22.7246C61.6732 22.998 61.8978 23.2161 62.1973 23.3789C62.5033 23.5352 62.8776 23.6133 63.3203 23.6133C63.8737 23.6133 64.362 23.4961 64.7852 23.2617C65.2083 23.0273 65.5436 22.7409 65.791 22.4023C66.0449 22.0638 66.1816 21.735 66.2012 21.416L66.9727 22.2852C66.9271 22.5586 66.8034 22.8613 66.6016 23.1934C66.3997 23.5254 66.1296 23.8444 65.791 24.1504C65.459 24.4499 65.0618 24.7005 64.5996 24.9023C64.1439 25.0977 63.6296 25.1953 63.0566 25.1953C62.3405 25.1953 61.7122 25.0553 61.1719 24.7754C60.638 24.4954 60.2214 24.1211 59.9219 23.6523C59.6289 23.1771 59.4824 22.6465 59.4824 22.0605C59.4824 21.4941 59.5931 20.9961 59.8145 20.5664C60.0358 20.1302 60.3548 19.7689 60.7715 19.4824C61.1882 19.1895 61.6895 18.9681 62.2754 18.8184C62.8613 18.6686 63.5156 18.5938 64.2383 18.5938H66.3379ZM72.4805 16.0938V25H70.6738V14.4336H72.4316L72.4805 16.0938ZM75.7812 14.375L75.7715 16.0547C75.6217 16.0221 75.4785 16.0026 75.3418 15.9961C75.2116 15.9831 75.0618 15.9766 74.8926 15.9766C74.4759 15.9766 74.1081 16.0417 73.7891 16.1719C73.4701 16.3021 73.1999 16.4844 72.9785 16.7188C72.7572 16.9531 72.5814 17.2331 72.4512 17.5586C72.3275 17.8776 72.2461 18.2292 72.207 18.6133L71.6992 18.9062C71.6992 18.2682 71.7611 17.6693 71.8848 17.1094C72.015 16.5495 72.2135 16.0547 72.4805 15.625C72.7474 15.1888 73.0859 14.8503 73.4961 14.6094C73.9128 14.362 74.4076 14.2383 74.9805 14.2383C75.1107 14.2383 75.2604 14.2546 75.4297 14.2871C75.599 14.3132 75.7161 14.3424 75.7812 14.375ZM84.375 10V25H82.5586V10H84.375ZM89.2383 14.4336V25H87.4219V14.4336H89.2383ZM87.2852 11.6309C87.2852 11.3379 87.373 11.0905 87.5488 10.8887C87.7311 10.6868 87.998 10.5859 88.3496 10.5859C88.6947 10.5859 88.9583 10.6868 89.1406 10.8887C89.3294 11.0905 89.4238 11.3379 89.4238 11.6309C89.4238 11.9108 89.3294 12.1517 89.1406 12.3535C88.9583 12.5488 88.6947 12.6465 88.3496 12.6465C87.998 12.6465 87.7311 12.5488 87.5488 12.3535C87.373 12.1517 87.2852 11.9108 87.2852 11.6309ZM93.9453 16.6895V25H92.1387V14.4336H93.8477L93.9453 16.6895ZM93.5156 19.3164L92.7637 19.2871C92.7702 18.5645 92.8776 17.8971 93.0859 17.2852C93.2943 16.6667 93.5872 16.1296 93.9648 15.6738C94.3424 15.2181 94.7917 14.8665 95.3125 14.6191C95.8398 14.3652 96.4225 14.2383 97.0605 14.2383C97.5814 14.2383 98.0501 14.3099 98.4668 14.4531C98.8835 14.5898 99.2383 14.8112 99.5312 15.1172C99.8307 15.4232 100.059 15.8203 100.215 16.3086C100.371 16.7904 100.449 17.3796 100.449 18.0762V25H98.6328V18.0566C98.6328 17.5033 98.5514 17.0605 98.3887 16.7285C98.2259 16.39 97.9883 16.1458 97.6758 15.9961C97.3633 15.8398 96.9792 15.7617 96.5234 15.7617C96.0742 15.7617 95.6641 15.8561 95.293 16.0449C94.9284 16.2337 94.6126 16.4941 94.3457 16.8262C94.0853 17.1582 93.8802 17.5391 93.7305 17.9688C93.5872 18.3919 93.5156 18.8411 93.5156 19.3164ZM105.01 10V25H103.193V10H105.01ZM111.465 14.4336L106.855 19.3652L104.277 22.041L104.131 20.1172L105.977 17.9102L109.258 14.4336H111.465ZM109.814 25L106.045 19.9609L106.982 18.3496L111.943 25H109.814Z" fill="url(#paint0_linear_2416_5053)"/>
<path d="M23.8912 19.0935C23.5458 19.4282 23.3872 19.9122 23.4658 20.3868L24.6512 26.9468C24.7512 27.5028 24.5165 28.0655 24.0512 28.3868C23.5952 28.7202 22.9885 28.7602 22.4912 28.4935L16.5858 25.4135C16.3805 25.3042 16.1525 25.2455 15.9192 25.2388H15.5578C15.4325 25.2575 15.3098 25.2975 15.1978 25.3588L9.29118 28.4535C8.99918 28.6002 8.66851 28.6522 8.34451 28.6002C7.55518 28.4508 7.02852 27.6988 7.15785 26.9055L8.34451 20.3455C8.42318 19.8668 8.26451 19.3802 7.91918 19.0402L3.10452 14.3735C2.70185 13.9828 2.56185 13.3962 2.74585 12.8668C2.92452 12.3388 3.38052 11.9535 3.93118 11.8668L10.5578 10.9055C11.0618 10.8535 11.5045 10.5468 11.7312 10.0935L14.6512 4.10683C14.7205 3.9735 14.8098 3.85083 14.9178 3.74683L15.0378 3.6535C15.1005 3.58416 15.1725 3.52683 15.2525 3.48016L15.3978 3.42683L15.6245 3.3335H16.1858C16.6872 3.3855 17.1285 3.6855 17.3592 4.1335L20.3178 10.0935C20.5312 10.5295 20.9458 10.8322 21.4245 10.9055L28.0512 11.8668C28.6112 11.9468 29.0792 12.3335 29.2645 12.8668C29.4392 13.4015 29.2885 13.9882 28.8778 14.3735L23.8912 19.0935Z" fill="url(#paint1_linear_2416_5053)"/>
<defs>
<linearGradient id="paint0_linear_2416_5053" x1="44.2353" y1="10.6316" x2="111.496" y2="22.071" gradientUnits="userSpaceOnUse">
<stop stop-color="#17A2B8"/>
<stop offset="1" stop-color="#6F42C1"/>
</linearGradient>
<linearGradient id="paint1_linear_2416_5053" x1="9.33268" y1="4.66683" x2="23.3327" y2="27.6668" gradientUnits="userSpaceOnUse">
<stop stop-color="#6F42C1"/>
<stop offset="1" stop-color="#17A2B8"/>
</linearGradient>
</defs>
</svg>
