<svg width="21" height="20" viewBox="0 0 21 20" fill="none" xmlns="http://www.w3.org/2000/svg">
<mask id="mask0_6162_3623" style="mask-type:luminance" maskUnits="userSpaceOnUse" x="0" y="0" width="21" height="20">
<path fill-rule="evenodd" clip-rule="evenodd" d="M0 0H20.4725V19.501H0V0Z" fill="white"/>
</mask>
<g mask="url(#mask0_6162_3623)">
<path fill-rule="evenodd" clip-rule="evenodd" d="M1.82396 9.12312C3.22596 13.4851 8.76496 17.0121 10.237 17.8851C11.714 17.0031 17.293 13.4371 18.65 9.12712C19.541 6.34112 18.714 2.81212 15.428 1.75312C13.836 1.24212 11.979 1.55312 10.697 2.54512C10.429 2.75112 10.057 2.75512 9.78696 2.55112C8.42896 1.53012 6.65496 1.23112 5.03796 1.75312C1.75696 2.81112 0.932957 6.34012 1.82396 9.12312ZM10.238 19.5011C10.114 19.5011 9.99096 19.4711 9.87896 19.4101C9.56596 19.2391 2.19296 15.1751 0.395957 9.58112C0.394957 9.58112 0.394957 9.58012 0.394957 9.58012C-0.733043 6.05812 0.522957 1.63212 4.57796 0.325118C6.48196 -0.290882 8.55696 -0.0198819 10.235 1.03912C11.861 0.0111181 14.021 -0.272882 15.887 0.325118C19.946 1.63412 21.206 6.05912 20.079 9.58012C18.34 15.1101 10.913 19.2351 10.598 19.4081C10.486 19.4701 10.362 19.5011 10.238 19.5011Z" fill="#CBCBCB"/>
</g>
<path fill-rule="evenodd" clip-rule="evenodd" d="M16.1547 7.62478C15.7677 7.62478 15.4397 7.32778 15.4077 6.93578C15.3417 6.11378 14.7917 5.41978 14.0087 5.16678C13.6137 5.03878 13.3977 4.61578 13.5247 4.22278C13.6537 3.82878 14.0727 3.61478 14.4687 3.73878C15.8317 4.17978 16.7867 5.38678 16.9037 6.81378C16.9367 7.22678 16.6297 7.58878 16.2167 7.62178C16.1957 7.62378 16.1757 7.62478 16.1547 7.62478Z" fill="#CBCBCB"/>
</svg>
