<svg width="40" height="40" viewBox="0 0 40 40" fill="none" xmlns="http://www.w3.org/2000/svg">
<rect width="40" height="40" rx="20" fill="#6C757D" fill-opacity="0.15"/>
<mask id="mask0_2416_5406" style="mask-type:luminance" maskUnits="userSpaceOnUse" x="10" y="11" width="21" height="20">
<path fill-rule="evenodd" clip-rule="evenodd" d="M10 11L30.4725 11L30.4725 30.501L10 30.501L10 11Z" fill="white"/>
</mask>
<g mask="url(#mask0_2416_5406)">
<path fill-rule="evenodd" clip-rule="evenodd" d="M11.824 20.1231C13.226 24.4851 18.765 28.0121 20.237 28.8851C21.714 28.0031 27.293 24.4371 28.65 20.1271C29.541 17.3411 28.714 13.8121 25.428 12.7531C23.836 12.2421 21.979 12.5531 20.697 13.5451C20.429 13.7511 20.057 13.7551 19.787 13.5511C18.429 12.5301 16.655 12.2311 15.038 12.7531C11.757 13.8111 10.933 17.3401 11.824 20.1231ZM20.238 30.5011C20.114 30.5011 19.991 30.4711 19.879 30.4101C19.566 30.2391 12.193 26.1751 10.396 20.5811C10.395 20.5811 10.395 20.5801 10.395 20.5801C9.26696 17.0581 10.523 12.6321 14.578 11.3251C16.482 10.7091 18.557 10.9801 20.235 12.0391C21.861 11.0111 24.021 10.7271 25.887 11.3251C29.946 12.6341 31.206 17.0591 30.079 20.5801C28.34 26.1101 20.913 30.2351 20.598 30.4081C20.486 30.4701 20.362 30.5011 20.238 30.5011Z" fill="white"/>
</g>
<path fill-rule="evenodd" clip-rule="evenodd" d="M26.1547 18.6248C25.7677 18.6248 25.4397 18.3278 25.4077 17.9358C25.3417 17.1138 24.7917 16.4198 24.0087 16.1668C23.6137 16.0388 23.3977 15.6158 23.5247 15.2228C23.6537 14.8288 24.0727 14.6148 24.4687 14.7388C25.8317 15.1798 26.7867 16.3868 26.9037 17.8138C26.9367 18.2268 26.6297 18.5888 26.2167 18.6218C26.1957 18.6238 26.1757 18.6248 26.1547 18.6248Z" fill="white"/>
</svg>
