<svg width="457" height="172" viewBox="0 0 457 172" fill="none" xmlns="http://www.w3.org/2000/svg">
<path d="M442 0H15C6.71573 0 0 6.71572 0 15V67.2881C0 71.2144 2.25602 74.7913 5.79923 76.4827L7.57095 77.3286C15.219 80.9796 14.5106 92.0908 6.46081 94.741C2.60532 96.0104 0 99.611 0 103.67V157C0 165.284 6.71572 172 15 172H442C450.284 172 457 165.284 457 157V103.588C457 99.57 454.442 95.9983 450.638 94.705C442.726 92.0147 442.014 81.1027 449.51 77.4073L451.304 76.5225C454.792 74.8031 457 71.2522 457 67.3638V15C457 6.71573 450.284 0 442 0Z" fill="url(#paint0_linear_2382_5155)" fill-opacity="0.6"/>
<defs>
<linearGradient id="paint0_linear_2382_5155" x1="4.10069" y1="6.6154" x2="459.762" y2="153.514" gradientUnits="userSpaceOnUse">
<stop stop-color="#6F42C1"/>
<stop offset="1" stop-color="#128293" stop-opacity="0.5"/>
</linearGradient>
</defs>
</svg>
